<?xml version="1.0" encoding="UTF-8" standalone="no"?>
<!-- Created with Inkscape (http://www.inkscape.org/) -->

<svg
   version="1.1"
   id="svg2"
   width="1600"
   height="1600"
   viewBox="0 0 1600 1600"
   sodipodi:docname="Ash logo.ai"
   xmlns:inkscape="http://www.inkscape.org/namespaces/inkscape"
   xmlns:sodipodi="http://sodipodi.sourceforge.net/DTD/sodipodi-0.dtd"
   xmlns="http://www.w3.org/2000/svg"
   xmlns:svg="http://www.w3.org/2000/svg">
  <defs
     id="defs6">
    <clipPath
       clipPathUnits="userSpaceOnUse"
       id="clipPath18">
      <path
         d="M 0,1200 H 1200 V 0 H 0 Z"
         id="path16" />
    </clipPath>
  </defs>
  <sodipodi:namedview
     id="namedview4"
     pagecolor="#ffffff"
     bordercolor="#000000"
     borderopacity="0.25"
     inkscape:showpageshadow="2"
     inkscape:pageopacity="0.0"
     inkscape:pagecheckerboard="0"
     inkscape:deskcolor="#d1d1d1" />
  <g
     id="g8"
     inkscape:groupmode="layer"
     inkscape:label="Ash logo"
     transform="matrix(1.3333333,0,0,-1.3333333,0,1600)">
    <path
       d="M 981.054,369.486 H 185.108 v 440.541 h 795.946 z"
       style="fill:#43474e;fill-opacity:1;fill-rule:nonzero;stroke:none"
       id="path10" />
    <g
       id="g12">
      <g
         id="g14"
         clip-path="url(#clipPath18)">
        <g
           id="g20"
           transform="translate(468.8608,602.27)">
          <path
             d="M 0,0 H -0.013 L -2.719,-8.127 H 2.708 Z M 8.781,-14.028 C 8.9,-14.377 8.973,-14.663 9,-14.87 9.035,-15.073 8.992,-15.231 8.886,-15.336 8.777,-15.434 8.585,-15.5 8.311,-15.528 8.032,-15.551 7.653,-15.565 7.17,-15.565 c -0.502,0 -0.893,0.012 -1.175,0.023 -0.281,0.014 -0.495,0.043 -0.642,0.09 -0.148,0.041 -0.251,0.106 -0.314,0.184 -0.056,0.078 -0.107,0.184 -0.143,0.309 l -1.286,3.845 h -7.188 l -1.211,-3.738 c -0.04,-0.139 -0.092,-0.254 -0.157,-0.354 -0.061,-0.093 -0.168,-0.16 -0.307,-0.218 -0.145,-0.055 -0.348,-0.088 -0.608,-0.108 -0.263,-0.019 -0.605,-0.033 -1.027,-0.033 -0.455,0 -0.805,0.02 -1.068,0.053 -0.254,0.021 -0.431,0.094 -0.529,0.207 -0.096,0.111 -0.132,0.277 -0.102,0.48 0.027,0.211 0.102,0.481 0.219,0.828 l 5.899,16.97 c 0.062,0.173 0.126,0.303 0.21,0.406 0.074,0.102 0.201,0.184 0.372,0.238 0.177,0.047 0.415,0.087 0.717,0.101 0.307,0.015 0.714,0.021 1.216,0.021 0.58,0 1.043,-0.006 1.389,-0.021 C 1.779,3.704 2.05,3.664 2.239,3.617 2.43,3.563 2.569,3.481 2.656,3.376 2.736,3.263 2.81,3.116 2.869,2.929 Z"
             style="fill:#d1d3d4;fill-opacity:1;fill-rule:nonzero;stroke:none"
             id="path22" />
        </g>
        <g
           id="g24"
           transform="translate(494.8379,592.5293)">
          <path
             d="m 0,0 c 0,-1.006 -0.19,-1.889 -0.567,-2.646 -0.373,-0.758 -0.88,-1.395 -1.519,-1.891 -0.639,-0.516 -1.39,-0.895 -2.246,-1.156 -0.86,-0.256 -1.775,-0.385 -2.753,-0.385 -0.659,0 -1.273,0.053 -1.84,0.166 -0.565,0.107 -1.065,0.242 -1.5,0.391 -0.432,0.156 -0.794,0.314 -1.085,0.484 -0.292,0.164 -0.5,0.314 -0.627,0.441 -0.128,0.125 -0.218,0.313 -0.273,0.555 -0.056,0.238 -0.084,0.592 -0.084,1.039 0,0.309 0.012,0.564 0.028,0.772 0.019,0.205 0.056,0.371 0.102,0.498 0.04,0.134 0.099,0.222 0.174,0.281 0.073,0.053 0.157,0.078 0.258,0.078 0.138,0 0.334,-0.078 0.583,-0.244 0.254,-0.162 0.572,-0.344 0.969,-0.537 0.391,-0.2 0.867,-0.383 1.412,-0.539 0.548,-0.166 1.18,-0.248 1.899,-0.248 0.476,0 0.898,0.056 1.272,0.171 0.374,0.116 0.692,0.278 0.955,0.479 0.258,0.211 0.464,0.467 0.599,0.77 0.139,0.306 0.203,0.644 0.203,1.017 0,0.436 -0.118,0.805 -0.35,1.119 -0.239,0.309 -0.547,0.582 -0.924,0.826 -0.381,0.243 -0.812,0.467 -1.296,0.682 -0.484,0.211 -0.98,0.432 -1.493,0.674 -0.511,0.236 -1.01,0.504 -1.494,0.807 -0.482,0.3 -0.911,0.658 -1.294,1.074 -0.379,0.422 -0.686,0.914 -0.922,1.486 -0.239,0.573 -0.355,1.261 -0.355,2.052 0,0.92 0.17,1.725 0.509,2.418 0.341,0.701 0.799,1.273 1.373,1.735 0.578,0.456 1.26,0.798 2.045,1.029 0.782,0.221 1.613,0.335 2.489,0.335 0.453,0 0.907,-0.035 1.362,-0.101 0.45,-0.071 0.875,-0.162 1.27,-0.283 0.395,-0.116 0.744,-0.253 1.048,-0.395 0.306,-0.152 0.51,-0.278 0.607,-0.372 0.097,-0.098 0.163,-0.184 0.201,-0.254 0.033,-0.07 0.061,-0.162 0.087,-0.27 0.026,-0.117 0.044,-0.266 0.052,-0.432 0.009,-0.171 0.013,-0.386 0.013,-0.644 0,-0.283 -0.004,-0.524 -0.021,-0.726 C -1.148,10.063 -1.17,9.899 -1.206,9.769 -1.24,9.647 -1.291,9.551 -1.355,9.498 c -0.062,-0.069 -0.15,-0.1 -0.257,-0.1 -0.11,0 -0.281,0.072 -0.518,0.211 -0.237,0.137 -0.527,0.29 -0.87,0.454 -0.35,0.157 -0.748,0.308 -1.2,0.442 -0.454,0.129 -0.949,0.195 -1.491,0.195 -0.426,0 -0.794,-0.047 -1.113,-0.154 C -7.117,10.447 -7.377,10.301 -7.595,10.12 -7.806,9.939 -7.964,9.72 -8.068,9.46 -8.167,9.206 -8.22,8.936 -8.22,8.646 c 0,-0.424 0.115,-0.786 0.345,-1.097 0.231,-0.315 0.543,-0.59 0.934,-0.828 0.388,-0.249 0.829,-0.469 1.319,-0.684 0.494,-0.213 1,-0.432 1.512,-0.674 0.511,-0.23 1.012,-0.5 1.505,-0.801 0.496,-0.3 0.932,-0.658 1.314,-1.082 C -0.904,3.061 -0.593,2.57 -0.357,2.004 -0.12,1.436 0,0.77 0,0"
             style="fill:#d1d3d4;fill-opacity:1;fill-rule:nonzero;stroke:none"
             id="path26" />
        </g>
        <g
           id="g28"
           transform="translate(515.9136,587.3262)">
          <path
             d="m 0,0 c 0,-0.098 -0.032,-0.187 -0.094,-0.264 -0.062,-0.08 -0.168,-0.142 -0.318,-0.191 -0.148,-0.053 -0.343,-0.092 -0.589,-0.113 -0.249,-0.034 -0.556,-0.053 -0.931,-0.053 -0.386,0 -0.707,0.019 -0.957,0.053 -0.252,0.021 -0.444,0.06 -0.589,0.113 -0.143,0.049 -0.25,0.111 -0.312,0.191 C -3.853,-0.187 -3.886,-0.098 -3.886,0 V 7.734 H -11.04 V 0 c 0,-0.098 -0.029,-0.187 -0.088,-0.264 -0.062,-0.08 -0.16,-0.142 -0.31,-0.191 -0.148,-0.053 -0.345,-0.092 -0.59,-0.113 -0.25,-0.034 -0.565,-0.053 -0.95,-0.053 -0.371,0 -0.688,0.019 -0.936,0.053 -0.254,0.021 -0.453,0.06 -0.602,0.113 -0.144,0.049 -0.252,0.111 -0.316,0.191 -0.065,0.077 -0.098,0.166 -0.098,0.264 v 18.063 c 0,0.099 0.033,0.187 0.098,0.269 0.064,0.076 0.172,0.137 0.316,0.192 0.149,0.048 0.348,0.084 0.602,0.116 0.248,0.033 0.565,0.043 0.936,0.043 0.385,0 0.7,-0.01 0.95,-0.043 0.245,-0.032 0.442,-0.068 0.59,-0.116 0.15,-0.055 0.248,-0.116 0.31,-0.192 0.059,-0.082 0.088,-0.17 0.088,-0.269 v -7.016 h 7.154 v 7.016 c 0,0.099 0.033,0.187 0.096,0.269 0.062,0.076 0.169,0.137 0.312,0.192 0.145,0.048 0.337,0.084 0.589,0.116 0.25,0.033 0.571,0.043 0.957,0.043 0.375,0 0.682,-0.01 0.931,-0.043 0.246,-0.032 0.441,-0.068 0.589,-0.116 0.15,-0.055 0.256,-0.116 0.318,-0.192 C -0.032,18.25 0,18.162 0,18.063 Z"
             style="fill:#d1d3d4;fill-opacity:1;fill-rule:nonzero;stroke:none"
             id="path30" />
        </g>
        <g
           id="g32"
           transform="translate(535.6626,587.0898)">
          <path
             d="m 0,0 c 0,-0.061 -0.016,-0.111 -0.046,-0.164 -0.028,-0.047 -0.077,-0.09 -0.148,-0.117 -0.068,-0.03 -0.16,-0.051 -0.274,-0.071 -0.111,-0.019 -0.26,-0.033 -0.436,-0.033 -0.164,0 -0.311,0.014 -0.428,0.033 -0.116,0.02 -0.211,0.041 -0.279,0.071 -0.07,0.027 -0.118,0.07 -0.149,0.117 -0.03,0.053 -0.042,0.103 -0.042,0.164 v 18.536 c 0,0.065 0.014,0.114 0.05,0.163 0.034,0.051 0.088,0.09 0.16,0.122 0.073,0.023 0.169,0.052 0.283,0.072 0.111,0.019 0.249,0.026 0.405,0.026 0.176,0 0.325,-0.007 0.436,-0.026 0.114,-0.02 0.206,-0.049 0.274,-0.072 0.071,-0.032 0.12,-0.071 0.148,-0.122 C -0.016,18.65 0,18.601 0,18.536 Z"
             style="fill:#d7c37e;fill-opacity:1;fill-rule:nonzero;stroke:none"
             id="path34" />
        </g>
        <g
           id="g36"
           transform="translate(557.978,587.6699)">
          <path
             d="M 0,0 C 0,-0.178 -0.028,-0.326 -0.079,-0.449 -0.131,-0.566 -0.206,-0.662 -0.284,-0.736 -0.371,-0.811 -0.462,-0.861 -0.569,-0.891 -0.67,-0.912 -0.764,-0.932 -0.855,-0.932 h -0.369 c -0.196,0 -0.379,0.024 -0.542,0.071 -0.165,0.05 -0.322,0.136 -0.471,0.256 -0.156,0.128 -0.306,0.293 -0.462,0.501 -0.155,0.204 -0.32,0.471 -0.509,0.799 l -6.741,11.938 c -0.333,0.586 -0.673,1.184 -1.011,1.803 -0.338,0.607 -0.665,1.212 -0.968,1.79 h -0.015 c 0.011,-0.719 0.015,-1.455 0.015,-2.204 V 11.811 -0.58 c 0,-0.061 -0.015,-0.111 -0.047,-0.164 -0.029,-0.047 -0.076,-0.09 -0.145,-0.117 -0.07,-0.03 -0.163,-0.051 -0.275,-0.071 -0.111,-0.019 -0.259,-0.033 -0.436,-0.033 -0.168,0 -0.312,0.014 -0.429,0.033 -0.117,0.02 -0.211,0.041 -0.282,0.071 -0.069,0.027 -0.116,0.07 -0.146,0.117 -0.029,0.053 -0.043,0.103 -0.043,0.164 v 17.901 c 0,0.358 0.095,0.6 0.28,0.729 0.189,0.136 0.369,0.207 0.548,0.207 h 0.74 c 0.235,0 0.434,-0.025 0.59,-0.064 0.158,-0.036 0.3,-0.104 0.427,-0.198 0.126,-0.094 0.255,-0.226 0.377,-0.397 0.124,-0.178 0.26,-0.393 0.406,-0.657 l 5.158,-9.152 c 0.329,-0.576 0.636,-1.121 0.926,-1.652 0.29,-0.526 0.572,-1.043 0.851,-1.549 0.273,-0.51 0.547,-1.012 0.822,-1.502 0.267,-0.494 0.539,-0.992 0.807,-1.492 h 0.015 c -0.013,0.828 -0.015,1.691 -0.015,2.584 v 2.59 11.133 c 0,0.055 0.015,0.109 0.041,0.159 0.034,0.049 0.077,0.091 0.15,0.126 0.066,0.034 0.157,0.061 0.269,0.071 0.115,0.019 0.258,0.027 0.442,0.027 0.154,0 0.292,-0.008 0.413,-0.027 0.115,-0.01 0.209,-0.037 0.278,-0.071 0.071,-0.035 0.122,-0.077 0.153,-0.126 C -0.017,18.01 0,17.956 0,17.901 Z"
             style="fill:#d7c37e;fill-opacity:1;fill-rule:nonzero;stroke:none"
             id="path38" />
        </g>
        <g
           id="g40"
           transform="translate(578.1558,605.0942)">
          <path
             d="m 0,0 c 0,-0.125 -0.007,-0.242 -0.03,-0.341 -0.02,-0.096 -0.053,-0.178 -0.091,-0.242 -0.04,-0.062 -0.087,-0.115 -0.144,-0.15 -0.062,-0.039 -0.125,-0.05 -0.194,-0.05 h -5.706 v -17.221 c 0,-0.061 -0.016,-0.112 -0.043,-0.164 -0.031,-0.047 -0.084,-0.09 -0.151,-0.118 -0.069,-0.029 -0.163,-0.05 -0.279,-0.07 -0.118,-0.019 -0.262,-0.033 -0.433,-0.033 -0.164,0 -0.309,0.014 -0.425,0.033 -0.117,0.02 -0.21,0.041 -0.28,0.07 -0.07,0.028 -0.117,0.071 -0.151,0.118 -0.026,0.052 -0.041,0.103 -0.041,0.164 v 17.221 h -5.707 c -0.084,0 -0.148,0.011 -0.201,0.05 -0.052,0.035 -0.099,0.088 -0.14,0.15 -0.039,0.064 -0.065,0.146 -0.086,0.242 -0.021,0.099 -0.033,0.216 -0.033,0.341 0,0.144 0.012,0.26 0.033,0.366 0.021,0.1 0.047,0.186 0.086,0.253 0.041,0.071 0.088,0.126 0.14,0.159 0.053,0.038 0.117,0.055 0.201,0.055 h 13.216 c 0.069,0 0.132,-0.017 0.194,-0.055 C -0.208,0.745 -0.161,0.69 -0.121,0.619 -0.083,0.552 -0.05,0.466 -0.03,0.366 -0.007,0.26 0,0.144 0,0"
             style="fill:#d7c37e;fill-opacity:1;fill-rule:nonzero;stroke:none"
             id="path42" />
        </g>
        <g
           id="g44"
           transform="translate(594.4585,587.5937)">
          <path
             d="M 0,0 C 0,-0.125 -0.012,-0.238 -0.032,-0.34 -0.053,-0.434 -0.084,-0.521 -0.125,-0.592 -0.17,-0.66 -0.217,-0.715 -0.285,-0.748 -0.341,-0.785 -0.404,-0.795 -0.474,-0.795 h -8.96 c -0.175,0 -0.359,0.061 -0.548,0.193 -0.185,0.137 -0.277,0.381 -0.277,0.735 v 17.264 c 0,0.358 0.092,0.601 0.277,0.729 0.189,0.136 0.373,0.207 0.548,0.207 h 8.83 c 0.066,0 0.13,-0.016 0.187,-0.054 0.058,-0.033 0.11,-0.088 0.147,-0.159 0.043,-0.068 0.072,-0.154 0.091,-0.253 0.02,-0.107 0.033,-0.223 0.033,-0.367 0,-0.125 -0.013,-0.242 -0.033,-0.34 -0.019,-0.096 -0.048,-0.178 -0.091,-0.243 -0.037,-0.061 -0.089,-0.115 -0.147,-0.15 -0.057,-0.039 -0.121,-0.05 -0.187,-0.05 H -8.458 V 9.992 h 6.771 c 0.081,0 0.15,-0.015 0.211,-0.053 C -1.417,9.902 -1.375,9.854 -1.333,9.791 -1.292,9.727 -1.26,9.645 -1.239,9.545 -1.223,9.432 -1.215,9.318 -1.215,9.18 -1.215,9.055 -1.223,8.939 -1.239,8.844 -1.26,8.752 -1.292,8.676 -1.333,8.619 -1.375,8.557 -1.417,8.514 -1.476,8.484 -1.537,8.455 -1.606,8.443 -1.687,8.443 H -8.458 V 0.814 h 7.984 c 0.07,0 0.133,-0.015 0.189,-0.052 C -0.217,0.725 -0.17,0.678 -0.125,0.617 -0.084,0.549 -0.053,0.465 -0.032,0.361 -0.012,0.258 0,0.139 0,0"
             style="fill:#d7c37e;fill-opacity:1;fill-rule:nonzero;stroke:none"
             id="path46" />
        </g>
        <g
           id="g48"
           transform="translate(610.8242,600.7993)">
          <path
             d="m 0,0 c 0,0.813 -0.185,1.507 -0.547,2.073 -0.365,0.563 -0.979,0.973 -1.836,1.218 -0.287,0.08 -0.597,0.138 -0.93,0.168 -0.34,0.039 -0.78,0.053 -1.318,0.053 H -6.998 V -3.51 h 2.753 c 0.737,0 1.372,0.095 1.904,0.277 0.534,0.176 0.976,0.428 1.325,0.748 0.346,0.309 0.606,0.682 0.768,1.101 C -0.085,-0.961 0,-0.499 0,0 m 3.171,-13.68 c 0,-0.069 -0.011,-0.127 -0.037,-0.178 -0.019,-0.049 -0.073,-0.09 -0.131,-0.123 -0.075,-0.039 -0.17,-0.061 -0.296,-0.08 -0.12,-0.02 -0.279,-0.033 -0.467,-0.033 -0.17,0 -0.308,0.011 -0.415,0.023 -0.116,0.014 -0.216,0.043 -0.294,0.09 -0.078,0.041 -0.142,0.102 -0.191,0.174 -0.051,0.072 -0.092,0.172 -0.131,0.293 l -1.791,4.639 c -0.203,0.523 -0.426,1.015 -0.662,1.48 -0.237,0.461 -0.526,0.865 -0.861,1.203 -0.333,0.34 -0.74,0.609 -1.208,0.807 -0.474,0.195 -1.042,0.295 -1.701,0.295 h -1.984 v -8.619 c 0,-0.061 -0.011,-0.112 -0.043,-0.165 -0.031,-0.046 -0.078,-0.089 -0.152,-0.117 -0.069,-0.029 -0.157,-0.051 -0.27,-0.07 -0.113,-0.02 -0.258,-0.033 -0.433,-0.033 -0.17,0 -0.313,0.013 -0.43,0.033 -0.118,0.019 -0.213,0.041 -0.282,0.07 -0.074,0.028 -0.117,0.071 -0.146,0.117 -0.032,0.053 -0.047,0.104 -0.047,0.165 v 17.9 c 0,0.359 0.097,0.601 0.28,0.73 0.19,0.136 0.374,0.207 0.548,0.207 h 3.591 c 0.47,0 0.866,-0.017 1.176,-0.04 C -2.898,5.063 -2.615,5.031 -2.355,4.989 -1.626,4.862 -0.988,4.658 -0.448,4.366 0.094,4.084 0.547,3.734 0.898,3.316 1.252,2.895 1.512,2.417 1.691,1.892 1.859,1.369 1.945,0.797 1.945,0.187 1.945,-0.446 1.857,-1.01 1.679,-1.507 1.504,-2.004 1.252,-2.446 0.93,-2.823 0.603,-3.202 0.213,-3.53 -0.242,-3.805 c -0.453,-0.278 -0.949,-0.506 -1.492,-0.692 0.326,-0.152 0.615,-0.332 0.88,-0.548 0.26,-0.217 0.502,-0.481 0.72,-0.789 0.22,-0.301 0.435,-0.653 0.63,-1.049 0.199,-0.405 0.397,-0.848 0.592,-1.342 l 1.788,-4.465 c 0.127,-0.346 0.211,-0.576 0.243,-0.709 0.033,-0.127 0.052,-0.223 0.052,-0.281"
             style="fill:#d7c37e;fill-opacity:1;fill-rule:nonzero;stroke:none"
             id="path50" />
        </g>
        <g
           id="g52"
           transform="translate(622.9346,587.0898)">
          <path
             d="m 0,0 c 0,-0.061 -0.01,-0.111 -0.04,-0.164 -0.033,-0.047 -0.078,-0.09 -0.145,-0.117 -0.074,-0.03 -0.164,-0.051 -0.279,-0.071 -0.111,-0.019 -0.259,-0.033 -0.433,-0.033 -0.17,0 -0.317,0.014 -0.428,0.033 -0.12,0.02 -0.214,0.041 -0.289,0.071 -0.063,0.027 -0.113,0.07 -0.146,0.117 -0.024,0.053 -0.038,0.103 -0.038,0.164 v 18.536 c 0,0.065 0.014,0.114 0.051,0.163 0.032,0.051 0.086,0.09 0.159,0.122 0.079,0.023 0.169,0.052 0.28,0.072 0.116,0.019 0.248,0.026 0.411,0.026 0.174,0 0.322,-0.007 0.433,-0.026 0.115,-0.02 0.205,-0.049 0.279,-0.072 0.067,-0.032 0.112,-0.071 0.145,-0.122 C -0.01,18.65 0,18.601 0,18.536 Z"
             style="fill:#d7c37e;fill-opacity:1;fill-rule:nonzero;stroke:none"
             id="path54" />
        </g>
        <g
           id="g56"
           transform="translate(644.9902,596.4141)">
          <path
             d="m 0,0 c 0,1.137 -0.105,2.197 -0.316,3.19 -0.213,0.988 -0.569,1.852 -1.051,2.585 -0.485,0.734 -1.143,1.309 -1.947,1.73 -0.805,0.419 -1.807,0.628 -2.998,0.628 -1.186,0 -2.184,-0.225 -2.993,-0.66 -0.816,-0.437 -1.476,-1.026 -1.986,-1.762 -0.505,-0.743 -0.871,-1.606 -1.09,-2.587 C -12.6,2.137 -12.715,1.096 -12.715,0 c 0,-1.158 0.101,-2.242 0.301,-3.242 0.204,-1 0.548,-1.869 1.033,-2.61 0.48,-0.734 1.122,-1.312 1.935,-1.728 0.805,-0.426 1.815,-0.637 3.028,-0.637 1.203,0 2.215,0.225 3.032,0.674 0.819,0.451 1.476,1.045 1.98,1.803 0.503,0.756 0.858,1.629 1.076,2.613 C -0.109,-2.125 0,-1.088 0,0 m 1.919,0.164 c 0,-1.523 -0.178,-2.91 -0.521,-4.141 -0.353,-1.24 -0.875,-2.293 -1.579,-3.164 -0.696,-0.873 -1.581,-1.547 -2.641,-2.019 -1.071,-0.475 -2.305,-0.713 -3.728,-0.713 -1.423,0 -2.638,0.228 -3.659,0.68 -1.02,0.441 -1.855,1.086 -2.511,1.92 -0.659,0.83 -1.14,1.849 -1.45,3.048 -0.313,1.204 -0.465,2.557 -0.465,4.069 0,1.498 0.17,2.851 0.514,4.077 0.351,1.224 0.871,2.261 1.581,3.125 0.7,0.862 1.581,1.531 2.641,2.009 1.055,0.465 2.304,0.705 3.735,0.705 1.391,0 2.594,-0.22 3.601,-0.668 1.02,-0.44 1.864,-1.075 2.527,-1.905 C 0.629,6.36 1.123,5.353 1.439,4.175 1.762,2.991 1.919,1.656 1.919,0.164"
             style="fill:#d7c37e;fill-opacity:1;fill-rule:nonzero;stroke:none"
             id="path58" />
        </g>
        <g
           id="g60"
           transform="translate(663.123,600.7993)">
          <path
             d="M 0,0 C 0,0.813 -0.178,1.507 -0.547,2.073 -0.91,2.636 -1.525,3.046 -2.379,3.291 -2.662,3.371 -2.976,3.429 -3.313,3.459 -3.644,3.498 -4.086,3.512 -4.625,3.512 H -6.994 V -3.51 h 2.753 c 0.739,0 1.374,0.095 1.905,0.277 0.534,0.176 0.977,0.428 1.324,0.748 0.352,0.309 0.606,0.682 0.77,1.101 C -0.08,-0.961 0,-0.499 0,0 m 3.176,-13.68 c 0,-0.069 -0.01,-0.127 -0.033,-0.178 -0.026,-0.049 -0.073,-0.09 -0.14,-0.123 -0.069,-0.039 -0.167,-0.061 -0.292,-0.08 -0.122,-0.02 -0.273,-0.033 -0.465,-0.033 -0.168,0 -0.307,0.011 -0.421,0.023 -0.11,0.014 -0.206,0.043 -0.282,0.09 -0.086,0.041 -0.145,0.102 -0.197,0.174 -0.055,0.072 -0.092,0.172 -0.133,0.293 l -1.786,4.639 c -0.206,0.523 -0.431,1.015 -0.667,1.48 -0.233,0.461 -0.522,0.865 -0.86,1.203 -0.332,0.34 -0.741,0.609 -1.213,0.807 -0.471,0.195 -1.039,0.295 -1.699,0.295 h -1.982 v -8.619 c 0,-0.061 -0.009,-0.112 -0.047,-0.165 -0.025,-0.046 -0.072,-0.089 -0.143,-0.117 -0.067,-0.029 -0.158,-0.051 -0.278,-0.07 -0.106,-0.02 -0.255,-0.033 -0.433,-0.033 -0.165,0 -0.311,0.013 -0.429,0.033 -0.115,0.019 -0.211,0.041 -0.283,0.07 -0.069,0.028 -0.116,0.071 -0.145,0.117 -0.029,0.053 -0.045,0.104 -0.045,0.165 v 17.9 c 0,0.359 0.096,0.601 0.279,0.73 0.19,0.136 0.371,0.207 0.554,0.207 h 3.587 c 0.475,0 0.865,-0.017 1.176,-0.04 C -2.89,5.063 -2.605,5.031 -2.355,4.989 -1.621,4.862 -0.985,4.658 -0.439,4.366 0.098,4.084 0.549,3.734 0.902,3.316 1.254,2.895 1.526,2.417 1.691,1.892 1.865,1.369 1.953,0.797 1.953,0.187 1.953,-0.446 1.865,-1.01 1.688,-1.507 1.505,-2.004 1.254,-2.446 0.932,-2.823 0.604,-3.202 0.215,-3.53 -0.236,-3.805 c -0.453,-0.278 -0.95,-0.506 -1.494,-0.692 0.328,-0.152 0.615,-0.332 0.881,-0.548 0.259,-0.217 0.502,-0.481 0.723,-0.789 0.222,-0.301 0.433,-0.653 0.63,-1.049 0.193,-0.405 0.394,-0.848 0.588,-1.342 l 1.789,-4.465 c 0.13,-0.346 0.209,-0.576 0.242,-0.709 0.037,-0.127 0.053,-0.223 0.053,-0.281"
             style="fill:#d7c37e;fill-opacity:1;fill-rule:nonzero;stroke:none"
             id="path62" />
        </g>
        <g
           id="g64"
           transform="translate(535.5723,550.5586)">
          <path
             d="M 0,0 H -99.544 V 92.493 H 0.01 V 71.981 H -1.663 V 90.82 H -97.874 V 1.666 h 96.2 V 20.91 l 1.674,0 z"
             style="fill:#d1d3d4;fill-opacity:1;fill-rule:nonzero;stroke:none"
             id="path66" />
        </g>
        <g
           id="g68"
           transform="translate(542.9507,577.5449)">
          <path
             d="m 0,0 -0.74,-5.434 h 0.592 c 0.916,0 1.519,0.03 1.818,0.073 0.455,0.08 0.838,0.218 1.146,0.437 0.307,0.217 0.573,0.535 0.796,0.963 0.22,0.432 0.329,0.902 0.329,1.404 0,0.536 -0.123,1 -0.375,1.407 -0.248,0.4 -0.587,0.695 -1.019,0.896 C 2.176,-0.088 1.549,0 0.671,0 Z M -0.588,0.648 H 0.861 C 1.781,0.648 2.486,0.533 2.97,0.293 3.462,0.051 3.854,-0.316 4.155,-0.824 4.454,-1.322 4.607,-1.895 4.607,-2.537 4.607,-3.227 4.434,-3.859 4.1,-4.445 3.757,-5.027 3.34,-5.447 2.846,-5.705 2.349,-5.957 1.61,-6.086 0.627,-6.086 h -2.129 z"
             style="fill:#d1d3d4;fill-opacity:1;fill-rule:nonzero;stroke:none"
             id="path70" />
        </g>
        <g
           id="g72"
           transform="translate(553.0293,574.3809)">
          <path
             d="m 0,0 c -0.021,0.467 -0.178,0.846 -0.481,1.137 -0.31,0.297 -0.693,0.441 -1.151,0.441 -0.502,0 -0.941,-0.144 -1.324,-0.424 C -3.336,0.871 -3.609,0.492 -3.765,0 Z m 0.587,-0.557 h -4.462 c -0.012,-0.591 0.14,-1.06 0.465,-1.398 0.317,-0.342 0.743,-0.506 1.269,-0.506 0.355,0 0.684,0.07 0.983,0.209 0.302,0.147 0.549,0.346 0.748,0.607 l 0.475,-0.386 c -0.238,-0.315 -0.556,-0.563 -0.945,-0.742 -0.394,-0.182 -0.819,-0.278 -1.272,-0.278 -0.786,0 -1.377,0.246 -1.768,0.725 -0.395,0.488 -0.591,1.033 -0.591,1.635 0,0.496 0.128,0.97 0.396,1.431 0.267,0.459 0.622,0.809 1.07,1.065 0.443,0.258 0.921,0.383 1.443,0.383 0.64,0 1.173,-0.215 1.592,-0.647 0.416,-0.43 0.629,-0.984 0.629,-1.648 0,-0.127 -0.013,-0.276 -0.032,-0.45"
             style="fill:#d1d3d4;fill-opacity:1;fill-rule:nonzero;stroke:none"
             id="path74" />
        </g>
        <g
           id="g76"
           transform="translate(557.5718,575.8828)">
          <path
             d="m 0,0 -0.352,-0.516 c -0.285,0.395 -0.618,0.598 -1.003,0.598 -0.218,0 -0.407,-0.072 -0.57,-0.217 -0.154,-0.14 -0.232,-0.299 -0.232,-0.478 0,-0.129 0.046,-0.26 0.142,-0.377 0.09,-0.123 0.301,-0.295 0.633,-0.5 0.476,-0.313 0.798,-0.582 0.947,-0.809 0.15,-0.232 0.228,-0.496 0.228,-0.799 0,-0.416 -0.147,-0.769 -0.441,-1.041 -0.292,-0.275 -0.677,-0.414 -1.145,-0.414 -0.622,0 -1.142,0.278 -1.567,0.821 l 0.395,0.455 c 0.368,-0.444 0.777,-0.672 1.209,-0.672 0.247,0 0.464,0.082 0.647,0.26 0.186,0.175 0.278,0.375 0.278,0.601 0,0.184 -0.069,0.367 -0.209,0.537 -0.087,0.106 -0.325,0.297 -0.716,0.561 -0.422,0.283 -0.701,0.523 -0.829,0.713 -0.129,0.187 -0.199,0.402 -0.199,0.632 0,0.37 0.141,0.684 0.422,0.948 0.278,0.252 0.633,0.383 1.055,0.383 0.253,0 0.483,-0.045 0.685,-0.151 C -0.416,0.434 -0.207,0.258 0,0"
             style="fill:#d1d3d4;fill-opacity:1;fill-rule:nonzero;stroke:none"
             id="path78" />
        </g>
        <g
           id="g80"
           transform="translate(559.2798,578.4961)">
          <path
             d="m 0,0 c 0.144,0 0.264,-0.053 0.365,-0.152 0.101,-0.106 0.15,-0.225 0.15,-0.364 0,-0.142 -0.049,-0.265 -0.15,-0.363 C 0.264,-0.98 0.144,-1.027 0,-1.027 c -0.141,0 -0.267,0.047 -0.37,0.148 -0.095,0.098 -0.14,0.221 -0.14,0.363 0,0.139 0.045,0.258 0.14,0.364 C -0.267,-0.053 -0.141,0 0,0 m -0.506,-2.053 h 0.612 l -0.654,-4.984 h -0.639 z"
             style="fill:#d1d3d4;fill-opacity:1;fill-rule:nonzero;stroke:none"
             id="path82" />
        </g>
        <g
           id="g84"
           transform="translate(563.1323,575.9648)">
          <path
             d="m 0,0 c -0.423,0 -0.808,-0.102 -1.169,-0.305 -0.363,-0.201 -0.638,-0.47 -0.832,-0.812 -0.201,-0.342 -0.302,-0.723 -0.302,-1.145 0,-0.492 0.154,-0.886 0.47,-1.183 0.314,-0.297 0.731,-0.451 1.261,-0.451 0.634,0 1.162,0.207 1.583,0.621 0.422,0.416 0.628,0.939 0.628,1.57 0,0.559 -0.169,0.978 -0.513,1.268 C 0.785,-0.15 0.408,0 0,0 M 1.908,0.479 H 2.536 L 1.963,-3.742 C 1.871,-4.422 1.76,-4.893 1.628,-5.17 1.448,-5.543 1.147,-5.852 0.725,-6.096 c -0.421,-0.238 -0.917,-0.357 -1.49,-0.357 -0.566,0 -1.045,0.113 -1.443,0.342 -0.399,0.23 -0.7,0.556 -0.903,0.992 l 0.572,0.207 c 0.355,-0.631 0.945,-0.953 1.774,-0.953 0.436,0 0.821,0.094 1.139,0.271 0.319,0.18 0.547,0.408 0.685,0.682 0.084,0.17 0.168,0.527 0.255,1.096 l 0.026,0.193 c -0.542,-0.59 -1.203,-0.883 -1.984,-0.883 -0.687,0 -1.243,0.209 -1.661,0.629 -0.422,0.42 -0.634,0.969 -0.634,1.637 0,0.494 0.131,0.961 0.382,1.396 0.256,0.434 0.61,0.787 1.059,1.053 0.45,0.264 0.905,0.395 1.368,0.395 0.385,0 0.737,-0.083 1.055,-0.258 0.323,-0.174 0.604,-0.444 0.85,-0.819 z"
             style="fill:#d1d3d4;fill-opacity:1;fill-rule:nonzero;stroke:none"
             id="path86" />
        </g>
        <g
           id="g88"
           transform="translate(567.127,576.4434)">
          <path
             d="M 0,0 H 0.619 L 0.513,-0.777 c 0.513,0.601 1.103,0.902 1.779,0.902 0.521,0 0.936,-0.154 1.254,-0.473 0.315,-0.316 0.477,-0.736 0.477,-1.275 0,-0.209 -0.033,-0.574 -0.102,-1.074 L 3.604,-4.984 H 2.977 l 0.305,2.287 c 0.071,0.486 0.102,0.845 0.102,1.078 0,0.353 -0.106,0.635 -0.316,0.842 -0.213,0.222 -0.494,0.328 -0.835,0.328 -0.339,0 -0.655,-0.086 -0.945,-0.262 C 0.998,-0.881 0.771,-1.121 0.612,-1.416 0.449,-1.709 0.33,-2.186 0.243,-2.828 l -0.284,-2.156 h -0.636 z"
             style="fill:#d1d3d4;fill-opacity:1;fill-rule:nonzero;stroke:none"
             id="path90" />
        </g>
        <g
           id="g92"
           transform="translate(576.3481,577.5586)">
          <path
             d="m 0,0 -0.301,-2.246 c 0.131,-0.004 0.282,-0.01 0.455,-0.01 0.611,0 1.048,0.053 1.32,0.147 0.272,0.099 0.475,0.252 0.628,0.459 0.146,0.211 0.222,0.441 0.222,0.695 0,0.334 -0.116,0.57 -0.35,0.732 C 1.746,-0.066 1.25,0.012 0.488,0.012 0.358,0.012 0.194,0.01 0,0 m -0.391,-2.898 -0.352,-2.567 h 0.921 c 0.634,0 1.076,0.028 1.315,0.08 0.337,0.076 0.59,0.213 0.764,0.414 0.174,0.198 0.258,0.455 0.258,0.77 0,0.283 -0.068,0.515 -0.21,0.707 -0.142,0.183 -0.37,0.332 -0.693,0.439 -0.321,0.108 -0.8,0.157 -1.44,0.157 z M -0.584,0.635 H 0.283 C 1.129,0.635 1.706,0.586 2.002,0.484 2.305,0.379 2.55,0.205 2.732,-0.051 2.917,-0.301 3.006,-0.607 3.006,-0.947 3.006,-1.312 2.91,-1.633 2.715,-1.916 2.515,-2.199 2.257,-2.4 1.917,-2.527 2.321,-2.65 2.637,-2.861 2.859,-3.152 3.09,-3.445 3.202,-3.793 3.202,-4.201 3.202,-4.611 3.106,-4.963 2.91,-5.258 2.715,-5.555 2.453,-5.771 2.125,-5.904 1.8,-6.031 1.233,-6.1 0.428,-6.1 h -1.93 z"
             style="fill:#d1d3d4;fill-opacity:1;fill-rule:nonzero;stroke:none"
             id="path94" />
        </g>
        <g
           id="g96"
           transform="translate(584.8066,574.3809)">
          <path
             d="M 0,0 C -0.021,0.467 -0.18,0.846 -0.483,1.137 -0.79,1.434 -1.174,1.578 -1.634,1.578 -2.13,1.578 -2.571,1.434 -2.951,1.154 -3.331,0.871 -3.604,0.492 -3.764,0 Z m 0.591,-0.557 h -4.467 c -0.01,-0.591 0.147,-1.06 0.468,-1.398 0.314,-0.342 0.743,-0.506 1.273,-0.506 0.352,0 0.68,0.07 0.981,0.209 0.3,0.147 0.547,0.346 0.747,0.607 l 0.476,-0.386 c -0.243,-0.315 -0.558,-0.563 -0.953,-0.742 -0.386,-0.182 -0.813,-0.278 -1.266,-0.278 -0.786,0 -1.378,0.246 -1.773,0.725 -0.389,0.488 -0.586,1.033 -0.586,1.635 0,0.496 0.133,0.97 0.397,1.431 0.262,0.459 0.619,0.809 1.069,1.065 0.439,0.258 0.923,0.383 1.442,0.383 0.639,0 1.17,-0.215 1.594,-0.647 0.419,-0.43 0.626,-0.984 0.626,-1.648 0,-0.127 -0.012,-0.276 -0.028,-0.45"
             style="fill:#d1d3d4;fill-opacity:1;fill-rule:nonzero;stroke:none"
             id="path98" />
        </g>
        <g
           id="g100"
           transform="translate(586.373,576.4434)">
          <path
             d="M 0,0 H 0.662 L 1.955,-3.68 4.104,0 h 0.72 L 0.851,-6.807 H 0.125 l 1.416,2.424 z"
             style="fill:#d1d3d4;fill-opacity:1;fill-rule:nonzero;stroke:none"
             id="path102" />
        </g>
        <g
           id="g104"
           transform="translate(594.3184,575.9648)">
          <path
             d="m 0,0 c -0.396,0 -0.772,-0.102 -1.125,-0.305 -0.354,-0.197 -0.617,-0.466 -0.811,-0.814 -0.186,-0.348 -0.285,-0.729 -0.285,-1.143 0,-0.525 0.169,-0.955 0.49,-1.285 0.326,-0.326 0.744,-0.492 1.263,-0.492 0.399,0 0.767,0.096 1.093,0.289 0.326,0.187 0.592,0.469 0.781,0.828 C 1.601,-2.566 1.7,-2.18 1.7,-1.768 1.7,-1.424 1.627,-1.117 1.481,-0.85 1.337,-0.578 1.133,-0.371 0.869,-0.227 0.601,-0.076 0.317,0 0,0 m 0.019,0.604 c 0.429,0 0.814,-0.1 1.172,-0.301 0.353,-0.207 0.633,-0.489 0.831,-0.848 0.202,-0.361 0.302,-0.771 0.302,-1.23 0,-0.524 -0.128,-1 -0.386,-1.454 C 1.685,-3.674 1.345,-4.023 0.916,-4.264 0.485,-4.51 0,-4.635 -0.544,-4.635 c -0.669,0 -1.225,0.219 -1.658,0.66 -0.437,0.436 -0.648,0.996 -0.648,1.67 0,0.535 0.119,1.02 0.376,1.473 0.253,0.447 0.606,0.797 1.045,1.053 0.445,0.258 0.927,0.383 1.448,0.383"
             style="fill:#d1d3d4;fill-opacity:1;fill-rule:nonzero;stroke:none"
             id="path106" />
        </g>
        <g
           id="g108"
           transform="translate(598.2407,576.4434)">
          <path
             d="M 0,0 H 0.618 L 0.517,-0.777 c 0.511,0.601 1.099,0.902 1.778,0.902 0.515,0 0.933,-0.154 1.249,-0.473 0.317,-0.316 0.482,-0.736 0.482,-1.275 0,-0.209 -0.039,-0.574 -0.101,-1.074 L 3.609,-4.984 H 2.98 l 0.309,2.287 c 0.065,0.486 0.101,0.845 0.101,1.078 0,0.353 -0.109,0.635 -0.318,0.842 -0.213,0.222 -0.488,0.328 -0.84,0.328 -0.336,0 -0.652,-0.086 -0.943,-0.262 C 0.998,-0.881 0.77,-1.121 0.613,-1.416 0.451,-1.709 0.328,-2.186 0.244,-2.828 l -0.287,-2.156 h -0.629 z"
             style="fill:#d1d3d4;fill-opacity:1;fill-rule:nonzero;stroke:none"
             id="path110" />
        </g>
        <g
           id="g112"
           transform="translate(605.8105,571.9199)">
          <path
             d="m 0,0 c 0.414,0 0.795,0.096 1.132,0.291 0.339,0.189 0.61,0.473 0.807,0.832 0.202,0.361 0.299,0.764 0.299,1.184 0,0.515 -0.161,0.939 -0.49,1.259 C 1.42,3.895 0.995,4.055 0.473,4.055 -0.143,4.055 -0.674,3.834 -1.107,3.389 -1.547,2.949 -1.769,2.406 -1.769,1.758 -1.769,1.23 -1.598,0.807 -1.274,0.48 -0.947,0.16 -0.523,0 0,0 M 2.469,-0.461 H 1.818 L 1.92,0.314 C 1.328,-0.289 0.664,-0.59 -0.082,-0.59 c -0.674,0 -1.231,0.219 -1.668,0.654 -0.435,0.442 -0.65,0.998 -0.65,1.686 0,0.797 0.285,1.479 0.853,2.049 0.567,0.562 1.233,0.849 1.999,0.849 0.412,0 0.78,-0.086 1.097,-0.259 C 1.86,4.215 2.128,3.943 2.355,3.572 L 2.74,6.443 h 0.666 z"
             style="fill:#d1d3d4;fill-opacity:1;fill-rule:nonzero;stroke:none"
             id="path114" />
        </g>
        <g
           id="g116"
           transform="translate(613.2832,578.1934)">
          <path
             d="m 0,0 h 0.681 l -0.913,-6.734 h -0.68 z"
             style="fill:#d1d3d4;fill-opacity:1;fill-rule:nonzero;stroke:none"
             id="path118" />
        </g>
        <g
           id="g120"
           transform="translate(615.166,576.4434)">
          <path
             d="M 0,0 H 0.627 L 0.532,-0.705 c 0.195,0.258 0.444,0.459 0.741,0.609 0.309,0.147 0.61,0.221 0.915,0.221 0.376,0 0.71,-0.107 1.006,-0.334 0.224,-0.174 0.392,-0.434 0.504,-0.775 0.231,0.355 0.509,0.623 0.843,0.82 0.332,0.195 0.67,0.289 1.013,0.289 0.469,0 0.852,-0.143 1.147,-0.439 0.297,-0.301 0.449,-0.68 0.449,-1.155 0,-0.213 -0.02,-0.47 -0.06,-0.779 L 6.734,-4.984 H 6.102 l 0.322,2.39 c 0.073,0.502 0.107,0.869 0.107,1.098 0,0.291 -0.094,0.533 -0.288,0.719 -0.189,0.189 -0.442,0.285 -0.757,0.285 -0.334,0 -0.642,-0.1 -0.924,-0.309 C 4.276,-1.004 4.07,-1.25 3.948,-1.529 3.828,-1.809 3.743,-2.166 3.681,-2.594 L 3.354,-4.984 H 2.709 l 0.371,2.736 c 0.047,0.291 0.064,0.529 0.064,0.713 0,0.318 -0.097,0.574 -0.29,0.767 -0.19,0.194 -0.44,0.289 -0.75,0.289 -0.26,0 -0.509,-0.062 -0.745,-0.185 C 1.115,-0.777 0.921,-0.939 0.773,-1.135 0.621,-1.328 0.51,-1.57 0.431,-1.857 0.357,-2.148 0.305,-2.406 0.275,-2.637 L -0.038,-4.984 H -0.68 Z"
             style="fill:#d1d3d4;fill-opacity:1;fill-rule:nonzero;stroke:none"
             id="path122" />
        </g>
        <g
           id="g124"
           transform="translate(625.8359,571.9199)">
          <path
             d="m 0,0 c 0.414,0 0.789,0.096 1.132,0.291 0.333,0.189 0.603,0.473 0.804,0.832 0.197,0.365 0.298,0.764 0.298,1.186 0,0.517 -0.162,0.937 -0.49,1.263 -0.33,0.323 -0.753,0.483 -1.275,0.483 -0.615,0 -1.14,-0.221 -1.582,-0.666 C -1.548,2.949 -1.765,2.406 -1.765,1.758 -1.765,1.23 -1.6,0.807 -1.277,0.48 -0.947,0.16 -0.523,0 0,0 M 2.467,-0.461 H 1.815 L 1.912,0.291 C 1.332,-0.297 0.679,-0.59 -0.07,-0.59 c -0.682,0 -1.239,0.219 -1.672,0.654 C -2.184,0.506 -2.4,1.062 -2.4,1.75 c 0,0.797 0.281,1.479 0.852,2.049 0.573,0.562 1.245,0.849 2.013,0.849 0.42,0 0.785,-0.082 1.101,-0.257 C 1.877,4.215 2.146,3.943 2.361,3.574 L 2.473,4.523 H 3.14 Z"
             style="fill:#d1d3d4;fill-opacity:1;fill-rule:nonzero;stroke:none"
             id="path126" />
        </g>
        <g
           id="g128"
           transform="translate(632.8125,575.9648)">
          <path
             d="m 0,0 c -0.422,0 -0.814,-0.102 -1.17,-0.305 -0.36,-0.201 -0.644,-0.47 -0.838,-0.812 -0.197,-0.342 -0.298,-0.723 -0.298,-1.145 0,-0.492 0.16,-0.886 0.473,-1.183 0.31,-0.297 0.731,-0.451 1.259,-0.451 0.637,0 1.164,0.207 1.582,0.621 0.42,0.416 0.633,0.939 0.633,1.57 0,0.559 -0.174,0.978 -0.512,1.268 C 0.785,-0.15 0.408,0 0,0 M 1.905,0.479 H 2.53 L 1.963,-3.742 C 1.868,-4.422 1.756,-4.893 1.627,-5.17 1.445,-5.543 1.145,-5.852 0.729,-6.096 0.301,-6.334 -0.193,-6.453 -0.766,-6.453 c -0.564,0 -1.048,0.113 -1.445,0.342 -0.398,0.23 -0.699,0.556 -0.899,0.992 l 0.574,0.207 c 0.347,-0.631 0.938,-0.953 1.77,-0.953 0.437,0 0.815,0.094 1.14,0.271 0.317,0.18 0.545,0.408 0.681,0.682 0.086,0.17 0.174,0.527 0.259,1.096 l 0.022,0.193 c -0.539,-0.59 -1.202,-0.883 -1.981,-0.883 -0.687,0 -1.247,0.209 -1.668,0.629 -0.418,0.42 -0.625,0.969 -0.625,1.637 0,0.494 0.129,0.961 0.385,1.396 0.253,0.434 0.607,0.787 1.053,1.053 0.447,0.264 0.904,0.395 1.372,0.395 0.378,0 0.73,-0.083 1.056,-0.258 0.314,-0.174 0.597,-0.444 0.846,-0.819 z"
             style="fill:#d1d3d4;fill-opacity:1;fill-rule:nonzero;stroke:none"
             id="path130" />
        </g>
        <g
           id="g132"
           transform="translate(637.1836,578.4961)">
          <path
             d="M 0,0 C 0.143,0 0.262,-0.053 0.369,-0.152 0.467,-0.258 0.518,-0.377 0.518,-0.516 0.518,-0.658 0.467,-0.781 0.369,-0.879 0.262,-0.98 0.143,-1.027 0,-1.027 c -0.143,0 -0.268,0.047 -0.361,0.148 -0.102,0.098 -0.154,0.221 -0.154,0.363 0,0.139 0.052,0.258 0.154,0.364 C -0.268,-0.053 -0.143,0 0,0 M -0.505,-2.053 H 0.107 L -0.55,-7.037 h -0.63 z"
             style="fill:#d1d3d4;fill-opacity:1;fill-rule:nonzero;stroke:none"
             id="path134" />
        </g>
        <g
           id="g136"
           transform="translate(638.6924,576.4434)">
          <path
             d="M 0,0 H 0.616 L 0.517,-0.777 c 0.504,0.601 1.097,0.902 1.775,0.902 0.516,0 0.937,-0.154 1.254,-0.473 0.313,-0.316 0.471,-0.736 0.471,-1.275 0,-0.209 -0.032,-0.574 -0.101,-1.074 L 3.609,-4.984 H 2.976 l 0.307,2.287 c 0.068,0.486 0.105,0.845 0.105,1.078 0,0.353 -0.108,0.635 -0.323,0.842 -0.212,0.222 -0.492,0.328 -0.832,0.328 -0.343,0 -0.656,-0.086 -0.949,-0.262 -0.291,-0.17 -0.515,-0.41 -0.68,-0.705 -0.158,-0.293 -0.278,-0.77 -0.366,-1.412 l -0.283,-2.156 h -0.636 z"
             style="fill:#d1d3d4;fill-opacity:1;fill-rule:nonzero;stroke:none"
             id="path138" />
        </g>
        <g
           id="g140"
           transform="translate(646.248,571.9199)">
          <path
             d="M 0,0 C 0.414,0 0.788,0.096 1.127,0.291 1.469,0.48 1.738,0.764 1.936,1.123 2.131,1.488 2.232,1.887 2.232,2.309 2.232,2.826 2.069,3.246 1.743,3.572 1.417,3.895 0.99,4.055 0.466,4.055 -0.145,4.055 -0.67,3.834 -1.109,3.389 -1.546,2.949 -1.766,2.406 -1.766,1.758 -1.766,1.23 -1.6,0.807 -1.273,0.48 -0.951,0.16 -0.521,0 0,0 M 2.461,-0.461 H 1.814 L 1.913,0.291 C 1.334,-0.297 0.672,-0.59 -0.072,-0.59 c -0.68,0 -1.239,0.219 -1.67,0.654 -0.438,0.442 -0.653,0.998 -0.653,1.686 0,0.797 0.28,1.479 0.852,2.049 0.57,0.562 1.236,0.849 2.009,0.849 C 0.881,4.648 1.25,4.566 1.56,4.391 1.88,4.215 2.145,3.943 2.357,3.574 l 0.119,0.949 h 0.667 z"
             style="fill:#d1d3d4;fill-opacity:1;fill-rule:nonzero;stroke:none"
             id="path142" />
        </g>
        <g
           id="g144"
           transform="translate(651.6689,578.3047)">
          <path
             d="M 0,0 H 0.631 L 0.384,-1.861 H 1.386 L 1.316,-2.422 H 0.304 L -0.29,-6.846 h -0.641 l 0.598,4.424 h -0.855 l 0.08,0.561 h 0.853 z"
             style="fill:#d1d3d4;fill-opacity:1;fill-rule:nonzero;stroke:none"
             id="path146" />
        </g>
        <g
           id="g148"
           transform="translate(654.4473,578.4961)">
          <path
             d="M 0,0 C 0.143,0 0.268,-0.053 0.367,-0.152 0.469,-0.258 0.518,-0.377 0.518,-0.516 0.518,-0.658 0.469,-0.781 0.367,-0.879 0.268,-0.98 0.143,-1.027 0,-1.027 c -0.139,0 -0.264,0.047 -0.363,0.148 -0.097,0.098 -0.148,0.221 -0.148,0.363 0,0.139 0.051,0.258 0.148,0.364 C -0.264,-0.053 -0.139,0 0,0 m -0.502,-2.053 h 0.607 l -0.656,-4.984 h -0.627 z"
             style="fill:#d1d3d4;fill-opacity:1;fill-rule:nonzero;stroke:none"
             id="path150" />
        </g>
        <g
           id="g152"
           transform="translate(658.1982,575.9648)">
          <path
             d="m 0,0 c -0.396,0 -0.767,-0.102 -1.119,-0.305 -0.355,-0.197 -0.622,-0.466 -0.812,-0.814 -0.191,-0.348 -0.28,-0.729 -0.28,-1.143 0,-0.525 0.159,-0.955 0.486,-1.285 0.326,-0.326 0.744,-0.492 1.261,-0.492 0.402,0 0.77,0.096 1.097,0.289 0.325,0.187 0.585,0.469 0.778,0.828 0.192,0.356 0.291,0.742 0.291,1.154 0,0.344 -0.069,0.651 -0.216,0.918 C 1.339,-0.578 1.134,-0.371 0.87,-0.227 0.606,-0.076 0.318,0 0,0 m 0.019,0.604 c 0.428,0 0.82,-0.1 1.175,-0.301 0.354,-0.207 0.633,-0.489 0.836,-0.848 0.199,-0.361 0.295,-0.771 0.295,-1.23 0,-0.524 -0.125,-1 -0.378,-1.454 C 1.687,-3.674 1.348,-4.023 0.919,-4.264 0.49,-4.51 0,-4.635 -0.54,-4.635 c -0.674,0 -1.229,0.219 -1.66,0.66 -0.43,0.436 -0.649,0.996 -0.649,1.67 0,0.535 0.123,1.02 0.381,1.473 0.258,0.447 0.605,0.797 1.046,1.053 0.441,0.258 0.922,0.383 1.441,0.383"
             style="fill:#d1d3d4;fill-opacity:1;fill-rule:nonzero;stroke:none"
             id="path154" />
        </g>
        <g
           id="g156"
           transform="translate(662.1289,576.4434)">
          <path
             d="M 0,0 H 0.613 L 0.51,-0.777 c 0.51,0.601 1.107,0.902 1.777,0.902 0.522,0 0.937,-0.154 1.256,-0.473 0.32,-0.316 0.478,-0.736 0.478,-1.275 0,-0.209 -0.035,-0.574 -0.103,-1.074 L 3.605,-4.984 H 2.979 l 0.306,2.287 c 0.069,0.486 0.1,0.845 0.1,1.078 0,0.353 -0.105,0.635 -0.319,0.842 -0.214,0.222 -0.492,0.328 -0.837,0.328 -0.336,0 -0.649,-0.086 -0.946,-0.262 C 0.994,-0.881 0.771,-1.121 0.604,-1.416 0.447,-1.709 0.319,-2.186 0.239,-2.828 l -0.286,-2.156 h -0.636 z"
             style="fill:#d1d3d4;fill-opacity:1;fill-rule:nonzero;stroke:none"
             id="path158" />
        </g>
      </g>
    </g>
  </g>
</svg>
